<?xml version="1.0" encoding="utf-8"?>
<!-- Generator: Adobe Illustrator 23.0.3, SVG Export Plug-In . SVG Version: 6.00 Build 0)  -->
<svg version="1.1" id="Layer_1" xmlns="http://www.w3.org/2000/svg" xmlns:xlink="http://www.w3.org/1999/xlink" x="0px" y="0px"
	 viewBox="0 0 600 600" style="enable-background:new 0 0 600 600;" xml:space="preserve">
<style type="text/css">
	.st0{fill:#F5E0CD;}
	.st1{fill:#FFCF5B;}
	.st2{fill:#B0A690;}
	.st3{fill:#936946;}
	.st4{fill:#423E35;}
</style>
<rect class="st0" width="120" height="120"/>
<rect y="240" class="st0" width="120" height="120"/>
<rect y="360" class="st1" width="120" height="120"/>
<rect y="480" class="st2" width="120" height="120"/>
<rect x="120" y="480" class="st3" width="120" height="120"/>
<rect x="240" y="480" class="st1" width="120" height="120"/>
<rect x="360" y="480" class="st0" width="120" height="120"/>
<rect x="480" y="480" class="st4" width="120" height="120"/>
<rect x="120" y="360" class="st4" width="120" height="120"/>
<rect x="240" y="360" class="st0" width="120" height="120"/>
<rect x="361.2" y="360" width="120" height="120"/>
<rect x="481.2" y="360" class="st1" width="120" height="120"/>
<rect x="120" y="240" width="120" height="120"/>
<rect x="240" y="240" class="st3" width="120" height="120"/>
<rect y="120" class="st3" width="120" height="120"/>
<rect x="240" y="120" class="st4" width="120" height="120"/>
<rect x="360" y="120" class="st1" width="120" height="120"/>
<rect x="480" y="120" class="st0" width="120" height="120"/>
<rect x="120" y="120" class="st0" width="120" height="120"/>
<rect x="120" class="st1" width="120" height="120"/>
<rect x="240" width="120" height="120"/>
<rect x="360" class="st2" width="120" height="120"/>
<rect x="360" y="240" class="st2" width="120" height="120"/>
<rect x="480" y="240" class="st4" width="120" height="120"/>
<rect x="480" class="st4" width="120" height="120"/>
</svg>
