<?xml version="1.0" encoding="utf-8"?>
<!-- Generator: Adobe Illustrator 23.0.3, SVG Export Plug-In . SVG Version: 6.00 Build 0)  -->
<svg version="1.1" id="Layer_1" xmlns="http://www.w3.org/2000/svg" xmlns:xlink="http://www.w3.org/1999/xlink" x="0px" y="0px"
	 viewBox="0 0 942.2 230.8" style="enable-background:new 0 0 942.2 230.8;" xml:space="preserve">
<style type="text/css">
	.st0{fill:#9EE54C;}
</style>
<g>
	<g>
		<path class="st0" d="M237.9,190.6c32-12.2,59.2-30.4,78-52.5c9.9-11.7,17.9-24.6,20.5-38.2c1.9-10,2.9-26.9-14.2-31
			c-17.4-4.1-33.7,10.1-42.9,18.5c-10.9,10-19,21.5-23.5,33.7c-4,10.9-6.6,23.6-0.6,34.4c6.6,11.9,23.4,16.4,40.1,12
			c20-5.3,33.6-17.8,47.5-28.7c15.8-12.4,33.1-23.8,51.6-34.3c-4-2.8-8-5.7-12-8.5c-10.7,7.2-19.8,15.6-26.6,24.8
			c-5.7,7.8-11.6,17.2-8.8,26.2c3.2,10.1,17,13.7,30.1,11c12.5-2.6,23.7-8.6,31.7-15.8c8.1-7.4,13.2-16.1,14.4-25.4
			c1.3-9.4-4-20.2-20.1-18.6c-12,1.2-26.9,10.1-27.4,19.2c-0.7,12.8,23.2,9.2,33.3,6.4c15.9-4.4,29.1-12.8,45.2-16.7
			c7.6-1.8,16.2-2.7,23.5,0.3c5.7,2.4,10.3,6.6,8.5,11.4c-2.9,7.5,13.4,10.6,16.3,3.2c2.4-6-1.3-12.4-8.9-15.7
			c-8-3.5-18-2.7-26.4-0.5c-16,4.3-30.6,14.3-34.8,26.3c-4.6,13.3,9.7,23.3,28.4,19.5c16.9-3.4,30.9-13.9,38.2-24.9
			c-5.3-1-10.5-2-15.8-3c-1.9,18.4-3.7,36.9-8.1,55.2c-2,8.3-3.6,17.7-9,25.3c-2.2,3.1-5.2,5.9-9.4,7.7c-2.7,1.2-9.1,3-10.7,0.3
			c-1.5-2.6,3.1-7.4,4.7-9.5c3.1-3.9,6.6-7.6,10.3-11.3c7.2-7,15.5-13.4,23.6-19.9c14.7-11.6,29.7-23.1,46.3-33.5
			c18.6-11.6,39.5-21.7,63-27.8c10.1-2.6,5.8-14.2-4.5-11.6c-21.3,5.3-47.3,17.3-52.2,34.1c-2.4,7.9,1.5,16.2,12.3,19.8
			c10.7,3.5,23.1,0.8,33-2.8c22-8,40.9-25.5,31.2-43.8c-4.1-7.6-14.6-14.9-27-12.3c-12.1,2.6-15.9,13.6-5.8,19.2
			c12.3,6.8,30.2,2.1,42.4-2.3c14.1-5,26.3-12.2,38.3-19.3c8.4-4.9-3.6-13.4-12-8.5c-14.2,8.3-32.1,20.2-51.4,21.3
			c-2.2,0.1-5.8-0.8-6.5,0.2c-0.4,0.6,3.6,2.6,4.4,3.4c2.5,2.6,3.2,5.9,3,9c-0.5,6.5-5.5,12.1-12.2,16.4c-6.1,3.9-14.3,7.5-22.4,8.7
			c-7.9,1.1-12.9-1.5-10.7-7.3c4.5-11.9,24.7-20.6,40-24.4c-1.5-3.9-3-7.7-4.5-11.6c-51.8,13.4-90.2,42.7-125.6,71.5
			c-9.6,7.8-19,15.9-26.4,24.8c-6,7.2-12.4,17-4.8,24.8c7.5,7.7,23.6,6.5,33.5,2c11.1-5.1,17-13.6,20.4-22.5
			c9.2-24.5,11.1-50.4,13.7-75.6c0.6-5.8-12.3-8.4-15.8-3c-4.3,6.5-10.5,12.2-19.1,16.2c-4.3,2-18,7.2-16.9-0.3
			c0.9-6,7.9-11.9,14.3-15.4c3.8-2.1,8.6-3.9,13.3-4.7c2.8-0.5,11.7-1.3,10.2,2.4c5.4,1.1,10.9,2.1,16.3,3.2
			c5.2-13.7-10.9-26.4-29.6-28.3c-23.9-2.4-43,9.3-62.8,16.6c-4.7,1.7-9.6,3.2-14.7,3.9c0.3,0-4.9,0.5-4.9,0.5
			c0.4,0.5,0.8,0.9,1.2,1.4c0.6,1.6,1.2,1.9,1.8,0.8c1.7-0.7,3.5-3.5,5.4-4.6c1-0.6,4.8-2.7,6.5-2.3c1.3,0.3,1,2.3,1,3.2
			c0,3.3-0.8,6.6-2.1,9.8c-2.9,6.6-8.5,12.6-15.9,17.1c-4.3,2.6-19.4,10.3-24.4,5.6c-5-4.8,3.8-15.5,6.8-19.5
			c6.1-8.2,14-15.3,23.4-21.7c8.1-5.4-3.7-13.2-12-8.5c-12.8,7.3-25.1,15-36.8,23.3c-11.2,8-21.2,16.7-32.3,24.7
			c-7.6,5.4-25,17.5-37,12.2c-9.5-4.3-8.1-16-6.8-22.7c2-10.2,6.8-20.1,13.9-29c6.5-8.2,16.4-18.7,28.4-23.3
			c6.2-2.4,7.6,0.8,8.4,4.8c1.1,5.8,0,11.9-1.8,17.5c-3.4,10.6-10.1,20.6-18.2,29.8c-17.3,19.8-41.9,35.8-70.8,46.8
			C219.8,183.8,228.3,194.2,237.9,190.6L237.9,190.6z"/>
	</g>
</g>
<g>
	<g>
		<path class="st0" d="M416.6,16.8c0.5-2.5-0.5,1.7-0.7,2.4c-0.5,1.8-1,3.6-1.6,5.5c-1.5,4.9-2.9,9.8-4.4,14.8
			c-2.4,7.8-5.3,15.7-6.7,23.7c-1.4,7.6,15.6,7.6,16.9,0c-0.5,2.5,0.5-1.7,0.7-2.4c0.5-1.8,1-3.7,1.6-5.5c1.5-4.9,2.9-9.8,4.4-14.8
			c2.4-7.8,5.3-15.7,6.7-23.7C434.9,9.2,418,9.3,416.6,16.8L416.6,16.8z"/>
	</g>
</g>
<g>
	<g>
		<path class="st0" d="M562.4,20.3c-13,10.9-25,22.3-36.1,34.2c-6,6.5,8.7,12.5,14.6,6.1c10.3-11,21.4-21.6,33.4-31.8
			C581.3,22.9,569.4,14.4,562.4,20.3L562.4,20.3z"/>
	</g>
</g>
<g>
	<g>
		<path class="st0" d="M726.2,35.5c-24.5,5.8-45.1,14.9-64.4,27c-8.2,5.1,3.9,13.6,12,8.5c17-10.8,35.4-18.8,57-24
			C740.9,44.6,736.5,33,726.2,35.5L726.2,35.5z"/>
	</g>
</g>
<g>
	<g>
		<path class="st0" d="M822.7,126.6c-43.8-4.9-88.3-9.5-132.1-2.4c-10.6,1.7-6.1,13.3,4.5,11.6c40.6-6.6,82.5-2.2,123.1,2.4
			C828.8,139.3,833.4,127.8,822.7,126.6L822.7,126.6z"/>
	</g>
</g>
<g>
	<g>
		<path class="st0" d="M734.2,188.8c-23-8.2-46.6-15.5-70.8-21.8c-10.2-2.7-14.7,8.9-4.5,11.6c22.8,5.9,45,12.8,66.7,20.5
			C735.3,202.6,743.9,192.2,734.2,188.8L734.2,188.8z"/>
	</g>
</g>
<g>
	<g>
		<path class="st0" d="M528.7,174.3c4.2,9.1,5.8,18.8,10,28c3.4,7.3,19.8,4.2,16.3-3.2c-4.2-9.1-5.8-18.8-10-28
			C541.7,163.8,525.3,166.9,528.7,174.3L528.7,174.3z"/>
	</g>
</g>
<g>
	<g>
		<path class="st0" d="M386.9,174.4c-6.2,9.3-12,18.7-17.4,28.2c-4.1,7.2,12.3,10.3,16.3,3.2c4.9-8.6,10.1-17,15.7-25.3
			C406.2,173.5,391.6,167.4,386.9,174.4L386.9,174.4z"/>
	</g>
</g>
<g>
	<g>
		<path class="st0" d="M316.5,170.9c-11.4,6.8-23.1,13.4-35.2,19.6c-8.7,4.5-0.3,14.9,8.6,10.4c13.2-6.8,26.1-14,38.6-21.5
			C336.8,174.4,324.8,165.9,316.5,170.9L316.5,170.9z"/>
	</g>
</g>
<g>
	<g>
		<path class="st0" d="M209.4,140.9c-27.7,4.4-55.6,7.8-83.8,10c-10.7,0.9-10.8,12.9,0,12c29.7-2.4,59.2-5.9,88.3-10.5
			C224.6,150.8,220.1,139.2,209.4,140.9L209.4,140.9z"/>
	</g>
</g>
<g>
	<g>
		<path class="st0" d="M231.3,80.3c-13.4-3.5-26.9-6.9-40.4-10.4c-10.3-2.6-14.7,8.9-4.5,11.6c13.4,3.5,26.9,6.9,40.4,10.4
			C237.1,94.5,241.5,82.9,231.3,80.3L231.3,80.3z"/>
	</g>
</g>
<g>
	<g>
		<path class="st0" d="M317.6,50c-5.3-7.2-10.6-14.5-15.9-21.7c-5-6.9-19.6-0.8-14.6,6.1c5.3,7.2,10.6,14.5,15.9,21.7
			C308,62.9,322.6,56.9,317.6,50L317.6,50z"/>
	</g>
</g>
<g>
	<g>
		<path class="st0" d="M581.2,172.7c7.7,8.1,15.9,16,24.6,23.6c6.9,6,18.8-2.5,12-8.5c-7.8-6.8-15.1-13.9-22-21.1
			C589.8,160.3,575.1,166.3,581.2,172.7L581.2,172.7z"/>
	</g>
</g>
</svg>
