<svg id="Layer_1" data-name="Layer 1" xmlns="http://www.w3.org/2000/svg" viewBox="0 0 457.02 72.25"><defs><style>.cls-1,.cls-2{fill:#fff;}.cls-1{stroke:#fff;stroke-width:1.5px;}</style></defs><title>ODJFS_logo_WHITE</title><line class="cls-1" x1="158.81" x2="158.81" y2="72.25"/><path class="cls-2" d="M255.1,372.7l5.83,0,1.06,0a10.4,10.4,0,0,1,1.54.19,11.37,11.37,0,0,1,1.76.49,6.25,6.25,0,0,1,1.7.92,6.17,6.17,0,0,1,1.4,1.44,8,8,0,0,1,.93,1.75,9.06,9.06,0,0,1,.51,1.92,11.66,11.66,0,0,1,.16,2,12.18,12.18,0,0,1-.5,3.64,8.77,8.77,0,0,1-1.36,2.7,7.35,7.35,0,0,1-2,1.79,7.1,7.1,0,0,1-2.38.89,3.74,3.74,0,0,1-.52.09,5.57,5.57,0,0,1-.65.06l-.85,0H255.1Zm3.83,15,.73,0h.75a11.92,11.92,0,0,0,2.24-.19,3.62,3.62,0,0,0,1.86-1,4.36,4.36,0,0,0,.87-1.3,8.4,8.4,0,0,0,.48-1.47,9,9,0,0,0,.19-1.36c0-.41,0-.73,0-.94a10.07,10.07,0,0,0-.17-1.84,5.91,5.91,0,0,0-.55-1.63,4.15,4.15,0,0,0-1-1.28,3.73,3.73,0,0,0-1.5-.8l-.64-.14a8.22,8.22,0,0,0-.82-.09c-.31,0-.66,0-1.07,0s-.88,0-1.41,0Z" transform="translate(-76.2 -359.3)"/><path class="cls-2" d="M275.59,385.28q0,.3,0,.87a3.42,3.42,0,0,0,.28,1.12,2.57,2.57,0,0,0,.75,1,2.24,2.24,0,0,0,1.45.41,2.54,2.54,0,0,0,1.28-.35,2.14,2.14,0,0,0,.86-1.39h3.29c0,.15,0,.33-.06.53a2.87,2.87,0,0,1-.16.66,4.5,4.5,0,0,1-.35.75,4.13,4.13,0,0,1-.6.79,4.3,4.3,0,0,1-1.81,1.1,8,8,0,0,1-2.5.37c-.26,0-.57,0-.94-.05a6.27,6.27,0,0,1-1.15-.22,7.31,7.31,0,0,1-1.18-.48,3.6,3.6,0,0,1-1.07-.82,5,5,0,0,1-1.22-2.13,9.91,9.91,0,0,1-.37-2.76,12.38,12.38,0,0,1,.11-1.59,8.79,8.79,0,0,1,.39-1.61,6.43,6.43,0,0,1,.78-1.49,5.25,5.25,0,0,1,1.28-1.25,5.82,5.82,0,0,1,1.58-.78,6.25,6.25,0,0,1,1.89-.27,6.51,6.51,0,0,1,1.36.15,5.38,5.38,0,0,1,1.37.5,5.14,5.14,0,0,1,2.24,2.38,6,6,0,0,1,.47,1.3,8.21,8.21,0,0,1,.22,1.25c0,.41.06.78.06,1.13s0,.66,0,.92Zm4.58-2.31c0-.15,0-.38,0-.68a2.93,2.93,0,0,0-.25-.93,2.25,2.25,0,0,0-.64-.84,1.89,1.89,0,0,0-1.22-.36,2,2,0,0,0-1,.24,2.13,2.13,0,0,0-.71.62,2.83,2.83,0,0,0-.43.89,5.33,5.33,0,0,0-.17,1.06Z" transform="translate(-76.2 -359.3)"/><path class="cls-2" d="M289.63,378.09l.1,1.79a3.7,3.7,0,0,1,1-1.17,4.11,4.11,0,0,1,1.11-.61,3.78,3.78,0,0,1,1-.22c.3,0,.52,0,.67,0a5,5,0,0,1,2.14.43,4.31,4.31,0,0,1,1.61,1.26,5.65,5.65,0,0,1,1,2,8.75,8.75,0,0,1,.35,2.6,9.17,9.17,0,0,1-.34,2.54,6.51,6.51,0,0,1-1,2.14,5,5,0,0,1-1.66,1.48,4.87,4.87,0,0,1-2.34.54,4.56,4.56,0,0,1-1.42-.19,4.94,4.94,0,0,1-1-.46,3.72,3.72,0,0,1-.65-.54l-.36-.42v6.26h-3.68V378.09Zm2.68,10.3a2.14,2.14,0,0,0,2-1.14,5.85,5.85,0,0,0,.67-3,12.16,12.16,0,0,0-.08-1.26,4.93,4.93,0,0,0-.36-1.33,2.81,2.81,0,0,0-.75-1,1.89,1.89,0,0,0-1.29-.42,2.65,2.65,0,0,0-.94.2,2.39,2.39,0,0,0-.91.68,4,4,0,0,0-.69,1.3,6.52,6.52,0,0,0-.28,2.09c0,.18,0,.49.05.92a4.51,4.51,0,0,0,.3,1.31,3,3,0,0,0,.79,1.18A2.14,2.14,0,0,0,292.31,388.39Z" transform="translate(-76.2 -359.3)"/><path class="cls-2" d="M308.52,390.63a6.75,6.75,0,0,1-.11-1c0-.3,0-.53,0-.71a5,5,0,0,1-1.06,1.15,4.37,4.37,0,0,1-1,.6,3.34,3.34,0,0,1-.91.22,6.47,6.47,0,0,1-.67,0,5,5,0,0,1-2-.32,4.24,4.24,0,0,1-1.05-.67,3.64,3.64,0,0,1-.81-1.3,4.37,4.37,0,0,1-.26-1.46,5.14,5.14,0,0,1,.09-.88,3.28,3.28,0,0,1,.36-1.05,4.59,4.59,0,0,1,.79-1.05,4.49,4.49,0,0,1,1.37-.92,6.12,6.12,0,0,1,1.23-.4,10.06,10.06,0,0,1,1.32-.21c.44,0,.86-.07,1.27-.08h1.05c0-.41,0-.73,0-1a2.44,2.44,0,0,0-.15-.69,1.26,1.26,0,0,0-.34-.55,1.9,1.9,0,0,0-.45-.31,2.06,2.06,0,0,0-.46-.15l-.35,0a1.69,1.69,0,0,0-.76.17,1.6,1.6,0,0,0-.61.52,1.54,1.54,0,0,0-.23.61c0,.19,0,.36,0,.51h-3.53a4.88,4.88,0,0,1,0-.61,2.94,2.94,0,0,1,.18-.77,3.93,3.93,0,0,1,.41-.82,2.88,2.88,0,0,1,.76-.76,4.66,4.66,0,0,1,1.85-.82,9.87,9.87,0,0,1,1.88-.2c.26,0,.57,0,.95.05a6.7,6.7,0,0,1,1.17.23,5.86,5.86,0,0,1,1.21.48,3.59,3.59,0,0,1,1.06.86,2.89,2.89,0,0,1,.49.83,5.64,5.64,0,0,1,.25.88,4.61,4.61,0,0,1,.1.79c0,.24,0,.43,0,.58l0,5q0,.8.06,1.59a12.43,12.43,0,0,0,.23,1.59Zm-.46-5.91a7.66,7.66,0,0,0-1.6,0,4.38,4.38,0,0,0-1.25.36,2.2,2.2,0,0,0-.83.69,1.68,1.68,0,0,0-.29,1,2,2,0,0,0,.11.63,1.64,1.64,0,0,0,.33.57,1.68,1.68,0,0,0,.55.42,1.64,1.64,0,0,0,.76.16,1.82,1.82,0,0,0,.88-.21,2.23,2.23,0,0,0,.65-.51,2.58,2.58,0,0,0,.59-1.34A14.58,14.58,0,0,0,308.06,384.72Z" transform="translate(-76.2 -359.3)"/><path class="cls-2" d="M314.69,381.16c0-.15,0-.36,0-.64s0-.56,0-.88,0-.62-.07-.91,0-.52-.06-.7h3.39l.07,2.42a7.73,7.73,0,0,1,.44-.85,3.1,3.1,0,0,1,.73-.82,3.55,3.55,0,0,1,1.2-.6,5.49,5.49,0,0,1,1.82-.17v3.31a5.4,5.4,0,0,0-2.14.12,2.49,2.49,0,0,0-1.17.72,2.2,2.2,0,0,0-.48,1.08,10,10,0,0,0-.08,1.21v6.18h-3.61Z" transform="translate(-76.2 -359.3)"/><path class="cls-2" d="M330.92,390.45a9,9,0,0,1-1.62.33c-.49.05-.89.07-1.18.07a4.72,4.72,0,0,1-2.1-.38,2.75,2.75,0,0,1-1.07-.92,2.69,2.69,0,0,1-.41-1.11,9.44,9.44,0,0,1-.06-1v-6.88h-2.36v-2.44h2.36V375.7l3.59-1.34v3.79H331v2.44h-2.93v5.66a6.08,6.08,0,0,0,0,.77,1.37,1.37,0,0,0,.18.6.87.87,0,0,0,.48.37,2.58,2.58,0,0,0,.94.13l.64,0a3.25,3.25,0,0,0,.57-.06Z" transform="translate(-76.2 -359.3)"/><path class="cls-2" d="M333.23,380.45c0-.4,0-.79,0-1.18s-.05-.79-.08-1.18h3.49l.13,1.61c.09-.13.23-.31.41-.52a3.18,3.18,0,0,1,.71-.63,4.82,4.82,0,0,1,1.09-.52,5,5,0,0,1,1.59-.22,4.72,4.72,0,0,1,1.75.28,3.87,3.87,0,0,1,1.14.68,2.72,2.72,0,0,1,.66.78c.15.27.25.47.32.62a4.55,4.55,0,0,1,.88-1.2,3.88,3.88,0,0,1,1-.71,4.28,4.28,0,0,1,1-.34,7.1,7.1,0,0,1,1-.08,4.42,4.42,0,0,1,1.59.25,4.11,4.11,0,0,1,1.11.57,3,3,0,0,1,.7.67,4.25,4.25,0,0,1,.35.52,3.56,3.56,0,0,1,.37.9,7.58,7.58,0,0,1,.18.95,7.93,7.93,0,0,1,.06,1v7.95h-3.63v-7.37a8.55,8.55,0,0,0-.06-1,2.67,2.67,0,0,0-.27-.92,1.7,1.7,0,0,0-.62-.66,2.24,2.24,0,0,0-1.12-.25,2,2,0,0,0-1.26.35,2.07,2.07,0,0,0-.67.91,4,4,0,0,0-.25,1.26c0,.48,0,.94,0,1.41v6.28h-3.63v-7.45c0-.25,0-.53,0-.84a2.49,2.49,0,0,0-.23-.9,1.87,1.87,0,0,0-.6-.72,1.91,1.91,0,0,0-1.16-.3,2.25,2.25,0,0,0-1.31.33,1.82,1.82,0,0,0-.67.77,2.73,2.73,0,0,0-.25.93q0,.48,0,.81v7.37h-3.64Z" transform="translate(-76.2 -359.3)"/><path class="cls-2" d="M359.06,385.28c0,.2,0,.49,0,.87a3.18,3.18,0,0,0,.28,1.12,2.54,2.54,0,0,0,.74,1,2.28,2.28,0,0,0,1.45.41,2.51,2.51,0,0,0,1.28-.35,2.11,2.11,0,0,0,.87-1.39H367c0,.15,0,.33-.06.53a3.51,3.51,0,0,1-.16.66,4.5,4.5,0,0,1-.35.75,5.15,5.15,0,0,1-.6.79,4.34,4.34,0,0,1-1.82,1.1,7.9,7.9,0,0,1-2.5.37c-.26,0-.57,0-.93-.05a6.27,6.27,0,0,1-1.15-.22,7,7,0,0,1-1.18-.48,3.77,3.77,0,0,1-1.08-.82A5.24,5.24,0,0,1,356,387.4a9.92,9.92,0,0,1-.36-2.76,12.38,12.38,0,0,1,.11-1.59,7.42,7.42,0,0,1,.39-1.61,6.43,6.43,0,0,1,.78-1.49,5.08,5.08,0,0,1,1.28-1.25,5.76,5.76,0,0,1,1.57-.78,6.35,6.35,0,0,1,1.89-.27,6.6,6.6,0,0,1,1.37.15,5.31,5.31,0,0,1,1.36.5,5.09,5.09,0,0,1,1.24.93,5,5,0,0,1,1,1.45,6.6,6.6,0,0,1,.48,1.3,9.66,9.66,0,0,1,.22,1.25c0,.41.06.78.06,1.13s0,.66,0,.92Zm4.59-2.31c0-.15,0-.38,0-.68a2.91,2.91,0,0,0-.24-.93,2.27,2.27,0,0,0-.65-.84,1.87,1.87,0,0,0-1.22-.36,2,2,0,0,0-1,.24,2.23,2.23,0,0,0-.71.62,3,3,0,0,0-.42.89,4.19,4.19,0,0,0-.17,1.06Z" transform="translate(-76.2 -359.3)"/><path class="cls-2" d="M369.77,380.31v-.25c0-.16,0-.36,0-.58s0-.47,0-.73,0-.51,0-.72h3.46l.09,1.89a4.85,4.85,0,0,1,.39-.59,4.16,4.16,0,0,1,.73-.72,4.21,4.21,0,0,1,1.18-.62,5,5,0,0,1,1.7-.26,4.33,4.33,0,0,1,1.56.25,3.9,3.9,0,0,1,1.11.61,3,3,0,0,1,.71.77,4.31,4.31,0,0,1,.38.73c.06.2.12.39.17.58a4.12,4.12,0,0,1,.11.7c0,.27,0,.61,0,1s0,.88,0,1.47v6.78h-3.68v-7.8c0-.27,0-.51,0-.74a1.56,1.56,0,0,0-.17-.63,2,2,0,0,0-.62-.75,1.88,1.88,0,0,0-1.14-.32,2.33,2.33,0,0,0-1.08.26,2,2,0,0,0-.8.71,2.5,2.5,0,0,0-.3.72,4.36,4.36,0,0,0-.14,1.19v7.36h-3.62Z" transform="translate(-76.2 -359.3)"/><path class="cls-2" d="M391.85,390.45a9,9,0,0,1-1.62.33c-.49.05-.89.07-1.18.07a4.72,4.72,0,0,1-2.1-.38,2.82,2.82,0,0,1-1.07-.92,2.55,2.55,0,0,1-.41-1.11,9.44,9.44,0,0,1-.06-1v-6.88h-2.36v-2.44h2.36V375.7l3.59-1.34v3.79h2.93v2.44H389v5.66a6.08,6.08,0,0,0,0,.77,1.37,1.37,0,0,0,.18.6.87.87,0,0,0,.48.37,2.55,2.55,0,0,0,.93.13l.65,0a3.25,3.25,0,0,0,.57-.06Z" transform="translate(-76.2 -359.3)"/><path class="cls-2" d="M400.31,384.47a9,9,0,0,1,.32-2.33,6.15,6.15,0,0,1,1.05-2.15,5.38,5.38,0,0,1,1.94-1.59,6.6,6.6,0,0,1,3.05-.62,7,7,0,0,1,2.88.53,5.58,5.58,0,0,1,2,1.44,5.76,5.76,0,0,1,1.14,2.11,8.92,8.92,0,0,1,0,5.05,6,6,0,0,1-1.17,2.15,5.72,5.72,0,0,1-2,1.48,7.68,7.68,0,0,1-5.36.13,5.35,5.35,0,0,1-2-1.24,5.7,5.7,0,0,1-1.34-2.08A7.76,7.76,0,0,1,400.31,384.47Zm3.71,0a5.38,5.38,0,0,0,.68,3.08,2.3,2.3,0,0,0,2,1,3,3,0,0,0,1.08-.2,1.94,1.94,0,0,0,.84-.7,4.14,4.14,0,0,0,.53-1.33,9.39,9.39,0,0,0,.19-2.08,10.15,10.15,0,0,0-.08-1.32,4.47,4.47,0,0,0-.36-1.29,2.54,2.54,0,0,0-.82-1,2.38,2.38,0,0,0-1.43-.38,2.11,2.11,0,0,0-1.53.51,3,3,0,0,0-.78,1.19,5.28,5.28,0,0,0-.29,1.41C404,383.83,404,384.21,404,384.49Z" transform="translate(-76.2 -359.3)"/><path class="cls-2" d="M416,380.7h-1.83v-2.61H416v-1.72a7.1,7.1,0,0,1,.17-1.56,3,3,0,0,1,.64-1.28,3.08,3.08,0,0,1,1.29-.86,6.4,6.4,0,0,1,2.15-.31h.68c.32,0,.75.05,1.27.12v2.56l-.41-.07h-.35a2.9,2.9,0,0,0-1.07.16,1.28,1.28,0,0,0-.55.42,1.06,1.06,0,0,0-.21.53c0,.19,0,.37,0,.54v1.47h2.29v2.61h-2.29v9.93H416Z" transform="translate(-76.2 -359.3)"/><path class="cls-2" d="M257.43,410.93a5.57,5.57,0,0,0,.48,2.32,1.62,1.62,0,0,0,1.6.86,2,2,0,0,0,.89-.18,1.67,1.67,0,0,0,.57-.41,1.34,1.34,0,0,0,.32-.49,3.85,3.85,0,0,0,.15-.44,7.21,7.21,0,0,0,.13-1.33c0-.5,0-1,0-1.48v-11h3.82v11a15.23,15.23,0,0,1-.11,2,7.1,7.1,0,0,1-.41,1.72A5.72,5.72,0,0,1,264,415a5.55,5.55,0,0,1-1.37,1.2,5.15,5.15,0,0,1-1.32.54,7.89,7.89,0,0,1-2.09.23,7.58,7.58,0,0,1-2.6-.42,4.14,4.14,0,0,1-2-1.77,4.82,4.82,0,0,1-.5-1,8.33,8.33,0,0,1-.28-1,9,9,0,0,1-.12-1c0-.3,0-.56,0-.79Z" transform="translate(-76.2 -359.3)"/><path class="cls-2" d="M267.73,410.58a9.05,9.05,0,0,1,.31-2.33,6.42,6.42,0,0,1,1-2.15,5.73,5.73,0,0,1,2-1.59,6.69,6.69,0,0,1,3-.62,7.24,7.24,0,0,1,2.89.53,5.53,5.53,0,0,1,2,1.45,5.8,5.8,0,0,1,1.15,2.1,8.8,8.8,0,0,1,0,5,6,6,0,0,1-1.17,2.15,5.48,5.48,0,0,1-2,1.48,7,7,0,0,1-2.9.55,7.3,7.3,0,0,1-2.46-.41,5.55,5.55,0,0,1-2-1.25,5.93,5.93,0,0,1-1.34-2.07A8,8,0,0,1,267.73,410.58Zm3.7,0a5.43,5.43,0,0,0,.68,3.07,2.33,2.33,0,0,0,2,1,2.92,2.92,0,0,0,1.08-.2,1.87,1.87,0,0,0,.84-.7,3.84,3.84,0,0,0,.54-1.33,9.39,9.39,0,0,0,.19-2.08,12.59,12.59,0,0,0-.08-1.32,4.27,4.27,0,0,0-.37-1.29,2.5,2.5,0,0,0-.81-1,2.41,2.41,0,0,0-1.44-.39,2.14,2.14,0,0,0-1.53.51,3.12,3.12,0,0,0-.78,1.19,5.28,5.28,0,0,0-.29,1.41C271.45,409.94,271.43,410.32,271.43,410.61Z" transform="translate(-76.2 -359.3)"/><path class="cls-2" d="M283.06,398.82h3.6v6.88a3.8,3.8,0,0,1,1-.95,4.33,4.33,0,0,1,1-.5,4.06,4.06,0,0,1,.88-.2c.27,0,.48,0,.65,0a4.94,4.94,0,0,1,2.09.45,5.09,5.09,0,0,1,1.71,1.29,6,6,0,0,1,1.14,2.08,8.71,8.71,0,0,1,.42,2.82,8.36,8.36,0,0,1-.47,3,5.51,5.51,0,0,1-1.19,1.95,4.42,4.42,0,0,1-1.64,1.08,5.43,5.43,0,0,1-1.84.34l-.7,0a3.92,3.92,0,0,1-1-.24,4.84,4.84,0,0,1-1.08-.59,3.61,3.61,0,0,1-1-1.15c0,.2,0,.45-.05.75s0,.63-.07,1h-3.48Zm8.77,12c0-.25,0-.62-.05-1.1a5.64,5.64,0,0,0-.31-1.43,3.25,3.25,0,0,0-.79-1.24,2,2,0,0,0-1.51-.54,2.18,2.18,0,0,0-1.53.5,3,3,0,0,0-.79,1.15,4,4,0,0,0-.29,1.29c0,.43,0,.75,0,.95a5.22,5.22,0,0,0,.79,3.19,2.45,2.45,0,0,0,2,1,2,2,0,0,0,1.44-.49,3,3,0,0,0,.74-1.16,4.73,4.73,0,0,0,.27-1.28C291.81,411.23,291.83,410.94,291.83,410.78Z" transform="translate(-76.2 -359.3)"/><path class="cls-2" d="M312.23,416.75a7.18,7.18,0,0,1-.12-1c0-.29,0-.53,0-.71a4.59,4.59,0,0,1-1.06,1.15,4,4,0,0,1-1,.6,3.47,3.47,0,0,1-.91.23l-.67,0a5,5,0,0,1-2-.32,4.16,4.16,0,0,1-1-.67,3.42,3.42,0,0,1-.82-1.29,4.37,4.37,0,0,1-.25-1.47,5,5,0,0,1,.08-.88,3.43,3.43,0,0,1,.37-1,4.35,4.35,0,0,1,.79-1.06,4.44,4.44,0,0,1,1.36-.92,6.33,6.33,0,0,1,1.23-.4,10.48,10.48,0,0,1,1.33-.21c.44,0,.86-.07,1.26-.07l1.05,0c0-.41,0-.73,0-1a2.82,2.82,0,0,0-.15-.7,1.22,1.22,0,0,0-.34-.54,1.73,1.73,0,0,0-.45-.31,1.43,1.43,0,0,0-.47-.15,1.85,1.85,0,0,0-.35,0,1.79,1.79,0,0,0-.75.17,1.53,1.53,0,0,0-.61.52,1.75,1.75,0,0,0-.24.61,4.92,4.92,0,0,0,0,.51h-3.54c0-.16,0-.37,0-.61a3.52,3.52,0,0,1,.6-1.59,3,3,0,0,1,.75-.75,4.72,4.72,0,0,1,1.86-.83,9.72,9.72,0,0,1,1.87-.19,8.77,8.77,0,0,1,.95.05,5.59,5.59,0,0,1,1.17.22,7.25,7.25,0,0,1,1.21.48,3.62,3.62,0,0,1,1.06.86,2.6,2.6,0,0,1,.49.83,5.52,5.52,0,0,1,.26.89,4.63,4.63,0,0,1,.1.78c0,.24,0,.43,0,.58l0,5.05q0,.8.06,1.59a12.43,12.43,0,0,0,.23,1.59Zm-.47-5.92a6.93,6.93,0,0,0-1.59,0,3.75,3.75,0,0,0-1.25.36,2,2,0,0,0-.83.68,1.61,1.61,0,0,0-.29,1,1.74,1.74,0,0,0,.11.63,1.78,1.78,0,0,0,.32.57,1.52,1.52,0,0,0,.55.42,1.71,1.71,0,0,0,.77.17,1.81,1.81,0,0,0,.87-.21,2.3,2.3,0,0,0,1.24-1.85A13,13,0,0,0,311.76,410.83Z" transform="translate(-76.2 -359.3)"/><path class="cls-2" d="M318.45,406.43v-.25c0-.17,0-.36,0-.59s0-.47,0-.73,0-.51,0-.72h3.46l.1,1.89a5.77,5.77,0,0,1,.39-.59,3.56,3.56,0,0,1,.73-.72,4.57,4.57,0,0,1,1.17-.62,5,5,0,0,1,1.71-.26,4.33,4.33,0,0,1,1.56.25,4.17,4.17,0,0,1,1.11.61,3.12,3.12,0,0,1,.7.77,4.31,4.31,0,0,1,.38.73c.07.2.12.4.17.59a3.84,3.84,0,0,1,.11.69c0,.28,0,.61.05,1s0,.89,0,1.47v6.79h-3.68v-7.81c0-.27,0-.51,0-.74a2,2,0,0,0-.17-.63,2,2,0,0,0-.63-.75,1.85,1.85,0,0,0-1.13-.32,2.37,2.37,0,0,0-1.09.26,2.09,2.09,0,0,0-.79.71,2.46,2.46,0,0,0-.31.72,4.48,4.48,0,0,0-.13,1.2v7.36h-3.62Z" transform="translate(-76.2 -359.3)"/><path class="cls-2" d="M341.42,398.8h3.64v15.91c0,.38,0,.76,0,1.13s0,.67.07.91H341.5l-.1-1.82c-.13.23-.28.47-.44.7a3.06,3.06,0,0,1-.8.72,3.46,3.46,0,0,1-1.33.55,8.35,8.35,0,0,1-1.06.1,4.77,4.77,0,0,1-3.87-1.65,7,7,0,0,1-1.37-4.6,9.08,9.08,0,0,1,.4-2.81,6.5,6.5,0,0,1,1.11-2.11,4.8,4.8,0,0,1,1.7-1.34A5.08,5.08,0,0,1,338,404a4.09,4.09,0,0,1,1.43.22,5,5,0,0,1,1,.48,3.09,3.09,0,0,1,.65.56,4.34,4.34,0,0,1,.37.46Zm-5.24,11.85a8.07,8.07,0,0,0,.14,1.51,4.67,4.67,0,0,0,.42,1.26,2.5,2.5,0,0,0,.77.87,2.05,2.05,0,0,0,1.16.32,2.4,2.4,0,0,0,1.39-.42,2.92,2.92,0,0,0,.9-1,4.51,4.51,0,0,0,.5-1.64,12.61,12.61,0,0,0,.08-1.32,4.82,4.82,0,0,0-.71-2.84,2.34,2.34,0,0,0-2-1,2,2,0,0,0-1.43.49,3,3,0,0,0-.81,1.16,5.07,5.07,0,0,0-.35,1.39A10,10,0,0,0,336.18,410.65Z" transform="translate(-76.2 -359.3)"/><path class="cls-2" d="M355.05,398.8h11.36v2.89h-7.58v4.41h7.07v3h-7.07v7.67h-3.78Z" transform="translate(-76.2 -359.3)"/><path class="cls-2" d="M374.91,416.75a8.8,8.8,0,0,1-.11-1c0-.29,0-.53,0-.71a4.79,4.79,0,0,1-1.06,1.15,4.05,4.05,0,0,1-1,.6,3.29,3.29,0,0,1-.91.23l-.67,0a5,5,0,0,1-2-.32,4.44,4.44,0,0,1-1-.67,3.52,3.52,0,0,1-.81-1.29,4.38,4.38,0,0,1-.26-1.47,5.14,5.14,0,0,1,.09-.88,3.68,3.68,0,0,1,.36-1,4.41,4.41,0,0,1,2.16-2,6.12,6.12,0,0,1,1.23-.4,10.33,10.33,0,0,1,1.32-.21c.44,0,.86-.07,1.27-.07l1.05,0q0-.62,0-1a2.42,2.42,0,0,0-.14-.7,1.33,1.33,0,0,0-.35-.54,1.45,1.45,0,0,0-.45-.31A1.38,1.38,0,0,0,373,406a1.71,1.71,0,0,0-1.11.13,1.6,1.6,0,0,0-.61.52,1.71,1.71,0,0,0-.23.61c0,.19,0,.36,0,.51H367.5a5,5,0,0,1,0-.61,3,3,0,0,1,.18-.77,4.82,4.82,0,0,1,.41-.82,2.86,2.86,0,0,1,.76-.75,4.74,4.74,0,0,1,1.85-.83,9.82,9.82,0,0,1,1.88-.19,8.77,8.77,0,0,1,.95.05,5.84,5.84,0,0,1,1.17.22,7.25,7.25,0,0,1,1.21.48,3.62,3.62,0,0,1,1.06.86,3,3,0,0,1,.49.83,5.45,5.45,0,0,1,.25.89,4.63,4.63,0,0,1,.1.78c0,.24,0,.43,0,.58l0,5.05q0,.8.06,1.59a12.43,12.43,0,0,0,.23,1.59Zm-.46-5.92a7,7,0,0,0-1.6,0,3.89,3.89,0,0,0-1.25.36,2.09,2.09,0,0,0-.83.68,1.68,1.68,0,0,0-.29,1,2,2,0,0,0,.11.63,1.64,1.64,0,0,0,.33.57,1.52,1.52,0,0,0,.55.42,1.67,1.67,0,0,0,.76.17,1.82,1.82,0,0,0,.88-.21,2.64,2.64,0,0,0,.66-.51,2.73,2.73,0,0,0,.58-1.34A14.88,14.88,0,0,0,374.45,410.83Z" transform="translate(-76.2 -359.3)"/><path class="cls-2" d="M381.15,406.56c0-.4,0-.79,0-1.18s-.05-.78-.09-1.18h3.5l.12,1.61.42-.52a3.63,3.63,0,0,1,.7-.62,4.7,4.7,0,0,1,1.1-.53,4.94,4.94,0,0,1,1.58-.22,4.73,4.73,0,0,1,1.76.29,3.86,3.86,0,0,1,1.14.67,3.26,3.26,0,0,1,.66.78c.14.27.25.48.32.63a4.65,4.65,0,0,1,.87-1.21,4,4,0,0,1,1-.71,4.25,4.25,0,0,1,1.05-.33,6,6,0,0,1,1-.09,4.52,4.52,0,0,1,1.6.25,4.77,4.77,0,0,1,1.11.57,3.4,3.4,0,0,1,.69.67c.17.23.29.41.36.52a3.53,3.53,0,0,1,.36.9,6.15,6.15,0,0,1,.19.95,8.1,8.1,0,0,1,.06,1v7.95H397v-7.38a7,7,0,0,0-.07-1,2.73,2.73,0,0,0-.26-.92,1.7,1.7,0,0,0-.62-.66,2.28,2.28,0,0,0-1.13-.24,2,2,0,0,0-1.25.34,2.11,2.11,0,0,0-.67.91,4.09,4.09,0,0,0-.26,1.27c0,.47,0,.94,0,1.4v6.29h-3.64v-7.46q0-.37,0-.84a2.78,2.78,0,0,0-.23-.9,2,2,0,0,0-.6-.72,2,2,0,0,0-1.16-.29,2.26,2.26,0,0,0-1.32.32,1.89,1.89,0,0,0-.67.77,2.56,2.56,0,0,0-.24.93c0,.32,0,.59,0,.81v7.38h-3.63Z" transform="translate(-76.2 -359.3)"/><path class="cls-2" d="M404,398.8h3.85V402H404Zm.12,5.37h3.61v12.58h-3.61Z" transform="translate(-76.2 -359.3)"/><path class="cls-2" d="M410.87,398.77h3.6v18h-3.6Z" transform="translate(-76.2 -359.3)"/><path class="cls-2" d="M420.29,404.2l2.71,8.7,2.75-8.7h3.58l-4.65,12.33-1.49,5h-3.63l1.56-4.72-4.73-12.6Z" transform="translate(-76.2 -359.3)"/><path class="cls-2" d="M441.08,411c0,.22,0,.52.05.9a2.83,2.83,0,0,0,.34,1.13,2.71,2.71,0,0,0,.94,1,3.51,3.51,0,0,0,1.86.41,3.91,3.91,0,0,0,2.44-.69,2.16,2.16,0,0,0,.9-1.82,2.09,2.09,0,0,0-.2-1,1.63,1.63,0,0,0-.63-.62,4.45,4.45,0,0,0-1-.44c-.43-.12-.91-.25-1.46-.38a24.68,24.68,0,0,1-2.79-.86,7.82,7.82,0,0,1-2-1.09,4.48,4.48,0,0,1-1.25-1.48,4.52,4.52,0,0,1-.42-2,5.63,5.63,0,0,1,.4-2.12,4.79,4.79,0,0,1,1.24-1.77,6.45,6.45,0,0,1,2.17-1.22,9.83,9.83,0,0,1,3.15-.46,11.36,11.36,0,0,1,1.41.09,6.56,6.56,0,0,1,1.44.34,5.76,5.76,0,0,1,1.34.66,4.21,4.21,0,0,1,1.12,1,4.64,4.64,0,0,1,.58,1,5.73,5.73,0,0,1,.3.95,4.22,4.22,0,0,1,.11.81c0,.24,0,.43,0,.58h-3.63c0-.15-.05-.38-.1-.68a2.45,2.45,0,0,0-.36-.92,2.53,2.53,0,0,0-.85-.8,3.06,3.06,0,0,0-1.54-.34,3.18,3.18,0,0,0-2.1.66,2.18,2.18,0,0,0-.79,1.78,2,2,0,0,0,.24,1,2,2,0,0,0,.72.67,5.17,5.17,0,0,0,1.19.47c.48.14,1,.28,1.67.45s1.51.39,2.23.61a7.67,7.67,0,0,1,1.94.89,4.49,4.49,0,0,1,1.36,1.42,4.21,4.21,0,0,1,.51,2.18,5.26,5.26,0,0,1-.49,2.27,5.2,5.2,0,0,1-1.44,1.85,7,7,0,0,1-2.35,1.26,11.78,11.78,0,0,1-6.07.12,6.33,6.33,0,0,1-1.92-.87,3.86,3.86,0,0,1-1.17-1.22,6.26,6.26,0,0,1-.61-1.36,5.35,5.35,0,0,1-.24-1.31c0-.41,0-.77,0-1.07Z" transform="translate(-76.2 -359.3)"/><path class="cls-2" d="M457.11,411.39c0,.2,0,.49,0,.87a3.13,3.13,0,0,0,.28,1.12,2.54,2.54,0,0,0,.74,1,2.2,2.2,0,0,0,1.45.41,2.5,2.5,0,0,0,1.28-.34,2.16,2.16,0,0,0,.87-1.4h3.29q0,.23-.06.54a3.92,3.92,0,0,1-.16.66,3.84,3.84,0,0,1-.36.74,4.55,4.55,0,0,1-.59.8,4.32,4.32,0,0,1-1.82,1.09,7.9,7.9,0,0,1-2.5.37,8.31,8.31,0,0,1-.93,0,5.53,5.53,0,0,1-1.15-.22,6.91,6.91,0,0,1-1.18-.47,4,4,0,0,1-1.08-.82,5.23,5.23,0,0,1-1.22-2.14,9.92,9.92,0,0,1-.36-2.76,12.63,12.63,0,0,1,.11-1.59,7.33,7.33,0,0,1,.39-1.6,6.13,6.13,0,0,1,.78-1.5,5.08,5.08,0,0,1,1.28-1.25,5.74,5.74,0,0,1,1.57-.77,6,6,0,0,1,1.89-.28,6.67,6.67,0,0,1,1.37.15,5.31,5.31,0,0,1,1.36.5,5.1,5.1,0,0,1,2.24,2.39,6.75,6.75,0,0,1,.48,1.29,10,10,0,0,1,.22,1.25c0,.41.06.79.06,1.13s0,.66,0,.92Zm4.59-2.31c0-.14,0-.37,0-.68a2.67,2.67,0,0,0-.24-.93,2.36,2.36,0,0,0-.65-.84,1.87,1.87,0,0,0-1.22-.36,2,2,0,0,0-1,.24,2.36,2.36,0,0,0-.71.62,3.11,3.11,0,0,0-.42.9,4.11,4.11,0,0,0-.17,1.05Z" transform="translate(-76.2 -359.3)"/><path class="cls-2" d="M467.78,407.27c0-.15,0-.36,0-.63s0-.57,0-.89l-.06-.9c0-.29-.05-.53-.06-.71H471l.07,2.42a7.73,7.73,0,0,1,.44-.85,3.29,3.29,0,0,1,.73-.82,3.54,3.54,0,0,1,1.2-.59,5.56,5.56,0,0,1,1.83-.18v3.31a5.86,5.86,0,0,0-2.15.12,2.49,2.49,0,0,0-1.17.72,2.1,2.1,0,0,0-.47,1.08,8.31,8.31,0,0,0-.09,1.21v6.19h-3.6Z" transform="translate(-76.2 -359.3)"/><path class="cls-2" d="M479.69,404.2l2.78,8.52,2.82-8.52h3.49l-4.44,12.55h-4l-4.51-12.55Z" transform="translate(-76.2 -359.3)"/><path class="cls-2" d="M490.68,398.8h3.86V402h-3.86Zm.13,5.37h3.6v12.58h-3.6Z" transform="translate(-76.2 -359.3)"/><path class="cls-2" d="M504.09,408.65c0-.12,0-.3-.08-.55a2.65,2.65,0,0,0-.22-.77,2.06,2.06,0,0,0-.47-.69,1.12,1.12,0,0,0-.82-.3,1.27,1.27,0,0,0-1,.43,2.91,2.91,0,0,0-.57,1.06,6.8,6.8,0,0,0-.26,1.3c0,.46-.06.86-.06,1.21,0,.18,0,.44,0,.77a8.64,8.64,0,0,0,.11,1.07,6.3,6.3,0,0,0,.27,1.12,2.33,2.33,0,0,0,.5.89,1.23,1.23,0,0,0,.52.35,1.6,1.6,0,0,0,.45.07,1.84,1.84,0,0,0,.4-.06,1.14,1.14,0,0,0,.51-.3,2.36,2.36,0,0,0,.48-.72,3.69,3.69,0,0,0,.27-1.33h3.56c0,.25-.05.52-.08.82a4.13,4.13,0,0,1-.21.93,4.23,4.23,0,0,1-.46,1,3.72,3.72,0,0,1-.84,1,4.48,4.48,0,0,1-1.5.86,6,6,0,0,1-2,.3,7.28,7.28,0,0,1-2.29-.34,4.5,4.5,0,0,1-1.9-1.32,6,6,0,0,1-1.18-2.19,9.54,9.54,0,0,1-.38-2.76,7.45,7.45,0,0,1,.67-3.43,5.55,5.55,0,0,1,1.6-2,4.86,4.86,0,0,1,1.9-.9,7.81,7.81,0,0,1,1.58-.21,6.27,6.27,0,0,1,1.74.26A5.16,5.16,0,0,1,506,405a4.18,4.18,0,0,1,1.19,1.46,4.6,4.6,0,0,1,.47,2.16Z" transform="translate(-76.2 -359.3)"/><path class="cls-2" d="M512.66,411.39q0,.3,0,.87a3.36,3.36,0,0,0,.28,1.12,2.57,2.57,0,0,0,.75,1,2.18,2.18,0,0,0,1.45.41,2.53,2.53,0,0,0,1.28-.34,2.19,2.19,0,0,0,.86-1.4h3.29q0,.23-.06.54a3.14,3.14,0,0,1-.16.66,4.42,4.42,0,0,1-.35.74,4.17,4.17,0,0,1-.6.8,4.29,4.29,0,0,1-1.81,1.09,8,8,0,0,1-2.5.37,8.6,8.6,0,0,1-.94,0,5.53,5.53,0,0,1-1.15-.22,7.25,7.25,0,0,1-1.18-.47,3.78,3.78,0,0,1-1.07-.82,5.12,5.12,0,0,1-1.22-2.14,9.55,9.55,0,0,1-.37-2.76,12.63,12.63,0,0,1,.11-1.59,8.69,8.69,0,0,1,.39-1.6,6.5,6.5,0,0,1,.78-1.5,5.25,5.25,0,0,1,1.28-1.25,5.8,5.8,0,0,1,1.58-.77,6,6,0,0,1,1.89-.28,6.58,6.58,0,0,1,1.36.15,5.38,5.38,0,0,1,1.37.5,5.1,5.1,0,0,1,2.24,2.39,6.1,6.1,0,0,1,.47,1.29,8.43,8.43,0,0,1,.22,1.25c0,.41.06.79.06,1.13s0,.66,0,.92Zm4.58-2.31c0-.14,0-.37,0-.68a2.67,2.67,0,0,0-.24-.93,2.33,2.33,0,0,0-.64-.84,1.89,1.89,0,0,0-1.22-.36,2,2,0,0,0-1,.24,2.24,2.24,0,0,0-.71.62,2.89,2.89,0,0,0-.43.9,4.61,4.61,0,0,0-.17,1.05Z" transform="translate(-76.2 -359.3)"/><path class="cls-2" d="M525.83,413.12a2.33,2.33,0,0,0,.14.61,1.34,1.34,0,0,0,.34.54,1.8,1.8,0,0,0,.62.4,2.45,2.45,0,0,0,1,.16,2,2,0,0,0,1.44-.46,1.4,1.4,0,0,0,.46-1,1.09,1.09,0,0,0-.33-.77,3.26,3.26,0,0,0-1.37-.65l-2.25-.62c-.24-.07-.54-.16-.9-.3a4.15,4.15,0,0,1-1-.58,3.24,3.24,0,0,1-.84-1,3.35,3.35,0,0,1-.34-1.59,3.4,3.4,0,0,1,.39-1.64,3.61,3.61,0,0,1,1.11-1.23,5.39,5.39,0,0,1,1.71-.79,8.24,8.24,0,0,1,2.18-.27,6.91,6.91,0,0,1,1.79.22,4.2,4.2,0,0,1,1.46.69,3.36,3.36,0,0,1,1,1.15,4,4,0,0,1,.43,1.64h-3.3a1.77,1.77,0,0,0-.24-.82,1.31,1.31,0,0,0-.46-.45,1.69,1.69,0,0,0-.55-.18,3.22,3.22,0,0,0-.5,0,2,2,0,0,0-1.22.34,1,1,0,0,0-.49.9.9.9,0,0,0,.44.88,8,8,0,0,0,1.24.44l2.22.62a5.24,5.24,0,0,1,2.49,1.35,3,3,0,0,1,.81,2.16,4,4,0,0,1-.34,1.59,3.85,3.85,0,0,1-1,1.38,5.37,5.37,0,0,1-1.77,1,7.52,7.52,0,0,1-2.5.37,8.21,8.21,0,0,1-2.28-.32,4.4,4.4,0,0,1-1.93-1.22,2.74,2.74,0,0,1-.75-1.33,9.16,9.16,0,0,1-.16-1.13Z" transform="translate(-76.2 -359.3)"/><path class="cls-2" d="M179.2,379H170v-8.51h9.19Zm0,32.19h3.23v5.77H166.82v-5.77h3.24v-19.8h-3.24v-5.77H179.2Zm22.79-26a16,16,0,0,0-16.07,16.15,16.07,16.07,0,1,0,32.14,0A16,16,0,0,0,202,385.13Zm0,24.58c-4.7,0-7.37-3.94-7.37-8.43s2.67-8.43,7.37-8.43,7.37,3.93,7.37,8.43S206.64,409.71,202,409.71Zm-42.26,1.44H163v5.77H147.7v-5.77h2.88v-9.81c0-.35,0-1.79,0-2.25-.11-2.46-1.06-6.13-5.27-6.13-5.22,0-5.57,4.79-5.57,6.31v11.88h2.9v5.77H127.32v-5.77h3.23V376.22h-3.23v-5.77h12.37v18.37c1.82-2.79,5.2-4,8.43-4,2.94,0,6.71,1.21,8.66,3.55,2.58,3,2.95,5.79,2.95,11.26Z" transform="translate(-76.2 -359.3)"/><path class="cls-2" d="M100.28,369.46a24.23,24.23,0,1,0,24.09,24.22A24.1,24.1,0,0,0,100.28,369.46Zm0,44.48a20.26,20.26,0,1,1,19.84-20.26A20,20,0,0,1,100.28,413.94Z" transform="translate(-76.2 -359.3)"/></svg>