<?xml version="1.0" encoding="utf-8"?>
<!-- Generator: Adobe Illustrator 23.0.3, SVG Export Plug-In . SVG Version: 6.00 Build 0)  -->
<svg version="1.1" id="Layer_1" xmlns="http://www.w3.org/2000/svg" xmlns:xlink="http://www.w3.org/1999/xlink" x="0px" y="0px"
	 viewBox="0 0 600 600" style="enable-background:new 0 0 600 600;" xml:space="preserve">
<style type="text/css">
	.st0{fill:#F5E0CD;}
	.st1{fill:#B0A690;}
	.st2{fill:#FFCF5B;}
	.st3{fill:#423E35;}
	.st4{fill:#936946;}
</style>
<rect class="st0" width="100" height="100"/>
<rect y="200" class="st0" width="100" height="100"/>
<rect y="300" width="100" height="100"/>
<rect y="400" class="st1" width="100" height="100"/>
<rect y="500" class="st2" width="100" height="100"/>
<rect x="100" y="500" class="st0" width="100" height="100"/>
<rect x="200" y="500" class="st3" width="100" height="100"/>
<rect x="300" y="500" class="st2" width="100" height="100"/>
<rect x="400" y="500" class="st4" width="100" height="100"/>
<rect x="500" y="500" width="100" height="100"/>
<rect x="100" y="400" class="st4" width="100" height="100"/>
<rect x="200" y="400" width="100" height="100"/>
<rect x="300" y="400" class="st0" width="100" height="100"/>
<rect x="400" y="400" class="st3" width="100" height="100"/>
<rect x="500" y="400" class="st0" width="100" height="100"/>
<rect x="100" y="300" class="st3" width="100" height="100"/>
<rect x="200" y="300" class="st0" width="100" height="100"/>
<rect x="301" y="300" width="100" height="100"/>
<rect x="401" y="300" class="st1" width="100" height="100"/>
<rect x="500" y="300" class="st2" width="100" height="100"/>
<rect x="100" y="200" width="100" height="100"/>
<rect x="200" y="200" class="st3" width="100" height="100"/>
<rect y="100" class="st4" width="100" height="100"/>
<rect x="200" y="100" class="st4" width="100" height="100"/>
<rect x="300" y="100" class="st2" width="100" height="100"/>
<rect x="400" y="100" class="st0" width="100" height="100"/>
<rect x="500" y="100" width="100" height="100"/>
<rect x="100" y="100" class="st0" width="100" height="100"/>
<rect x="100" class="st2" width="100" height="100"/>
<rect x="200" width="100" height="100"/>
<rect x="300" class="st1" width="100" height="100"/>
<rect x="300" y="200" class="st1" width="100" height="100"/>
<rect x="400" y="200" class="st3" width="100" height="100"/>
<rect x="500" y="200" class="st4" width="100" height="100"/>
<rect x="400" class="st3" width="100" height="100"/>
<rect x="500" class="st4" width="100" height="100"/>
</svg>
