<?xml version="1.0" encoding="utf-8"?>
<!-- Generator: Adobe Illustrator 18.0.0, SVG Export Plug-In . SVG Version: 6.00 Build 0)  -->
<!DOCTYPE svg PUBLIC "-//W3C//DTD SVG 1.1//EN" "http://www.w3.org/Graphics/SVG/1.1/DTD/svg11.dtd">
<svg version="1.1" id="logo" xmlns="http://www.w3.org/2000/svg" xmlns:xlink="http://www.w3.org/1999/xlink" x="0px" y="0px"
	 viewBox="0 0 120 190" enable-background="new 0 0 120 190" xml:space="preserve">
<path d="M115.9,0H4.2C1.9,0,0,1.9,0,4.2v180.5c0,2.3,1.9,4.2,4.2,4.2h13.1c4.8-1.8,5.8-7.4,5.8-12.3c0.4-24.7,0-49.9-0.8-74.6
	c-4.2,0.4-7.9,5.2-12.5,3.8C14.5,101.3,17,95,18.7,91c-0.9-0.7-1.2,0.4-3.7,0.3c1.6-2.8,6.5-11.5,6.7-14.1c0-0.4-0.8-0.8-2.7-0.3
	c-0.7,0.2,1.9-1.9,6-10.6c0.2-0.5,0.9,4.8,5.1,10c0.9,1.1-1.9-0.2-2.8,0.4c2.3,9.4,8,14.6,7.8,14.8c-0.5,0.6-6.4-2.2-5,1.1
	c2,4.8,5.7,8.3,9.6,12.2c0.4,0.4-1.6,0.3-2.6,0.3c-3.5-0.4-10.9-4.8-10.3-2.4c0.7,20.1,0.4,72.2,2.5,77.8c1,2.8,3,7.2,5.4,8.4h21.8
	c4.6-3.9,6.7-9.2,6.7-14.9c0-20.8-0.5-65.6-1.1-70.7c-1.9-1.8-8.5,3.9-11.9,2.7c3.2-3.3,8.3-10.6,8.7-13.2c-1-0.7-3.4,0.7-5.1,0
	c-0.1-0.1,6.6-10.2,7.3-13.9c0.2-1.3-3.4,0.4-4.1,0c3.7-6.2,5.5-9.2,7.6-14.8c2.4,6,3.6,9.9,7.8,14.2c0.4,0.4-0.1,0.5-0.4,0.5
	c-1.4,0.1-4.5-1.7-4.6-0.4c-0.4,2.9,4.5,9.2,7.5,14c-3,0.6-6.3-1.5-6.2-0.1c1.4,4.6,5.5,7.8,9,11.3c0.4,0.7,0.4,1.1-0.6,1.1
	c-5.6,0.1-10.9-3.1-10.5-1.4c0,25,0.9,49,1.6,74c0.1,3.2,0.5,7.1,2.3,9.9c0.3,0.3,1.1,1.4,1.8,1.6h19.2c2.4-1.1,3.4-5,3.4-7.6
	c0.4-39.2,0.1-78.2,0.1-78.3c-0.2-2.3-5.7,3.8-10.9,2.5c7.4-8.2,8.7-13.8,8.3-13.8c-1.4-0.7-3,1.9-4.7,1.5c-0.4,0-0.2-0.3,0.1-0.7
	c2.1-3.1,6.7-11.4,6.3-13.4c-0.1-0.8-3,0-2.8-0.5c1.6-3.3,3.6-4.1,5.5-10.3c0,0.6,2.6,6.2,6.5,10.1c-0.6,0.4-3.3,0-3.3,0.8
	c0.3,3.7,4.1,7.6,6.9,12.2c0.4,0.7-0.4,0.8-0.7,0.8c-1.1,0-3.5-1.5-4.6-0.8c-1.5,0.9,6.5,10.6,7.9,13c1.5,2.6-10.3-4.8-10.3-1.8
	c0.7,25,0.6,50.9,1.9,76.3c0.1,2.4,0.9,5.5,4.7,9.9h10.1c2.3,0,4.2-1.9,4.2-4.2V4.2C120.1,1.9,118.2,0,115.9,0z M47.1,21.7
	c-6.7,0-12.1,5.4-12.1,12.1c0,2.5,0.8,4.8,2,6.7c-3.7-2.1-6.3-6-6.3-10.6c0-6.7,5.4-12.1,12.1-12.1c4.2,0,7.9,2.1,10,5.4
	C51.2,22.2,49.3,21.7,47.1,21.7z"/>
</svg>
