<?xml version="1.0" encoding="utf-8"?>
<!-- Generator: Adobe Illustrator 22.1.0, SVG Export Plug-In . SVG Version: 6.00 Build 0)  -->
<svg version="1.1" id="Layer_1" xmlns="http://www.w3.org/2000/svg" xmlns:xlink="http://www.w3.org/1999/xlink" x="0px" y="0px"
	 viewBox="0 0 206 251" style="enable-background:new 0 0 206 251;" xml:space="preserve">
<style type="text/css">
	.st0{fill:#323232;}
	.st1{fill:#48B782;}
	.st2{opacity:0.55;}
	.st3{fill:#F2ECC2;}
</style>
<g>
	<g>
		<path class="st0" d="M0,117.9c0-0.1,0-0.3,0-0.4h0V117.9z"/>
		<path class="st0" d="M204.3,119.7v-0.9c0-24.1-5-28.6-43.6-52l-14,3.6c34.9,22.4,44,23.7,45,38l-125.3-3.5l-0.3,3.5l-49.6,0
			c5.2-22,60.5-28.8,91.2-46.7c22.8-16.2,23-22.3,22.8-32.5c-0.1-12.2-7.3-28.4-27.8-28.4c-19,0-26,6-30,21l8,7.7
			c3.9-11.7,9.5-16.8,21-17.9c8-0.8,17,6.2,17,16.1c0,9-4.9,14.3-21,25.1C74.4,67,1.9,80.1,1.7,117.5l67.4,0.6"/>
	</g>
	<g>
		<g>
			<path class="st0" d="M188,244.3c0,3.3-2.7,6-6,6H30c-3.3,0-6-2.7-6-6v-141c0-3.3,2.7-6,6-6h152c3.3,0,6,2.7,6,6V244.3z"/>
		</g>
		<g>
			<rect x="24" y="183.3" class="st0" width="67" height="67"/>
		</g>
		<path class="st0" d="M185.7,102.3c0.4-2.3-0.5-4.8-3.5-5.4c-4.4-1-8.8-1.9-13.2-2.7c-17.9-4.4-37-2.2-55.3-0.8l-81.3,6
			c-6.4,0.5-6.4,10.5,0,10c25.8-1.9,51.6-3.8,77.4-5.7c14.2-1,29.7-3.3,44.5-2c0.5,0.2,1,0.4,1.6,0.5c4,0.5,7.9,1.2,11.9,1.9
			c3.6,1,7.2,2.3,10.6,4.1C182.7,110.4,186.7,105.9,185.7,102.3z"/>
	</g>
	<g>
		<path class="st1" d="M179.8,236.3c0,3.3-2.7,6-6,6H38.2c-3.3,0-6-2.7-6-6V110.6c0-3.3,2.7-6,6-6h135.6c3.3,0,6,2.7,6,6V236.3z"/>
	</g>
	<g>
		<rect x="32.2" y="182" class="st1" width="60.3" height="60.3"/>
	</g>
	<path class="st1" d="M176.8,108.2c0.4-2.1-0.5-4.3-3.1-4.9c-3.9-0.9-7.9-1.7-11.9-2.4c-16.1-4-33.3-2-49.8-0.8l-73.2,5.4
		c-5.7,0.4-5.8,9.4,0,9c23.2-1.7,46.4-3.4,69.6-5.1c12.8-0.9,26.7-2.9,40-1.8c0.4,0.2,0.9,0.3,1.4,0.4c3.6,0.5,7.1,1.1,10.7,1.7
		c3.3,0.9,6.5,2.1,9.5,3.7C174,115.4,177.6,111.4,176.8,108.2z"/>
	<g class="st2">
		<path class="st3" d="M177.8,221.7c0.4-2.9-0.5-6-3.1-6.8c-3.9-1.3-7.9-2.4-11.9-3.3c-13.8-2.3-30-2.7-49.8-1.1L39.8,218
			c-5.7,0.6-5.8,13.1,0,12.5c23.2-2.4,46.4-4.7,69.6-7.1c12.8-1.3,27.7-2.1,41-0.5c0.4,0.3,0.9,0.5,1.4,0.6
			c3.6,0.7,7.1,1.5,10.7,2.4c3.3,1.3,5.5,0.9,8.5,3.1C175,231.8,178.6,226.1,177.8,221.7z"/>
	</g>
	<path class="st0" d="M102.2,207.2l-1,0c-0.2-1.7-0.4-3.4-0.6-5.1c-0.2-1.8-0.3-3.5-0.5-5.2c-0.1-1.7-0.2-3.4-0.3-5.1
		c-0.1-1.7-0.1-3.2-0.1-4.7c0-1.1,0-2.2,0.1-3.2c0-1,0.1-1.9,0.2-2.8c0-0.2,0.3-0.4,0.8-0.6s1.2-0.3,1.9-0.4s1.7-0.2,2.6-0.2
		c1-0.1,1.9-0.1,2.9-0.1c1.2,0,2.5,0,3.8,0.1s2.7,0.2,4,0.3c-1,2.2-1.9,4.4-2.9,6.6c-0.9,2.2-1.8,4.4-2.6,6.6
		c-0.8,2.2-1.6,4.5-2.3,6.7c-0.7,2.3-1.3,4.6-1.9,7L102.2,207.2z"/>
	<g>
		<path class="st0" d="M127.8,128.7c4.1,1.8,7.7,4.5,10.6,8c2.9,3.5,4.4,7,4.4,10.5c0,3.7-0.9,6.7-2.6,8.8s-4.2,3.2-7.4,3.2
			c-2,0-3.8-0.7-5.3-2.1c-1.5-1.4-2.2-3-2.2-4.9c0-0.9,0.1-1.8,0.4-2.6s0.8-1.6,1.4-2.3c0.7-0.7,1.6-1.3,2.8-1.7
			c1.1-0.4,2.6-0.6,4.4-0.6h2.4c-0.3-3-1.4-5.6-3.2-7.7c-1.9-2.1-4.4-4-7.7-5.6L127.8,128.7z"/>
	</g>
	<g>
		<path class="st0" d="M77.8,128.7c4.2,1.8,7.7,4.5,10.6,8c2.9,3.5,4.4,7,4.4,10.5c0,3.7-0.9,6.7-2.6,8.8s-4.2,3.2-7.3,3.2
			c-2,0-3.8-0.7-5.3-2.1c-1.5-1.4-2.2-3-2.2-4.9c0-0.9,0.1-1.8,0.4-2.6s0.8-1.6,1.4-2.3c0.7-0.7,1.6-1.3,2.8-1.7
			c1.1-0.4,2.6-0.6,4.4-0.6h2.4c-0.3-3-1.4-5.6-3.2-7.7c-1.9-2.1-4.4-4-7.7-5.6L77.8,128.7z"/>
	</g>
	<path class="st0" d="M105.5,232.2c-1,0-2-0.2-2.8-0.6c-0.9-0.4-1.6-1-2.2-1.7c-0.6-0.7-1.1-1.5-1.4-2.4c-0.3-0.9-0.5-1.8-0.5-2.8
		c0-1.3,0.2-2.5,0.7-3.5c0.4-1,1-1.9,1.7-2.6c0.7-0.7,1.5-1.2,2.4-1.6s1.7-0.5,2.6-0.5c1,0,1.9,0.2,2.8,0.6s1.6,0.9,2.2,1.5
		c0.6,0.6,1.1,1.4,1.4,2.2c0.3,0.9,0.5,1.7,0.5,2.7c0,1-0.2,2.1-0.5,3.1c-0.3,1-0.8,1.9-1.5,2.8c-0.6,0.8-1.4,1.5-2.3,2
		C107.6,231.9,106.6,232.2,105.5,232.2z"/>
</g>
</svg>
